<svg width="298" height="54" fill="none" xmlns="http://www.w3.org/2000/svg"><path d="M272.258 14.065v15.789c0 3.178-2.129 5.297-5.322 5.297-3.192 0-5.321-2.12-5.321-5.297V14.065h-5.499v15.789c0 5.707 4.328 10.08 10.82 10.08s10.821-4.373 10.821-10.08V14.065h-5.499Zm9.772 25.46h5.499v-25.46h-5.499v25.46Z" fill="#000"/><path fill-rule="evenodd" clip-rule="evenodd" d="M285.287 5.282h-27.545a7.945 7.945 0 0 0-7.945 7.946v27.544a7.945 7.945 0 0 0 7.945 7.946h27.545a7.946 7.946 0 0 0 7.946-7.946V13.228a7.946 7.946 0 0 0-7.946-7.946ZM257.742.515c-7.021 0-12.713 5.691-12.713 12.713v27.544c0 7.022 5.692 12.713 12.713 12.713h27.545c7.021 0 12.713-5.691 12.713-12.713V13.228C298 6.206 292.308.515 285.287.515h-27.545Z" fill="#000"/><path d="M54.557 39.767h18.238v7.93H54.557v-7.93Z" fill="#000"/><path d="M73.43 41.432a9.874 9.874 0 0 0-2.857-6.953 9.714 9.714 0 0 0-6.897-2.88 9.714 9.714 0 0 0-6.897 2.88 9.874 9.874 0 0 0-2.857 6.953H73.43Z" fill="#000"/><path fill-rule="evenodd" clip-rule="evenodd" d="M63.715 43.89c5.584 0 10.111-4.526 10.111-10.11s-4.527-10.11-10.11-10.11c-5.584 0-10.11 4.526-10.11 10.11s4.526 10.11 10.11 10.11Zm0 7.93c9.964 0 18.04-8.077 18.04-18.04s-8.076-18.04-18.04-18.04c-9.963 0-18.04 8.077-18.04 18.04s8.077 18.04 18.04 18.04Zm115.141-7.93c5.583 0 10.11-4.526 10.11-10.11s-4.527-10.11-10.11-10.11c-5.584 0-10.111 4.526-10.111 10.11s4.527 10.11 10.111 10.11Zm0 7.93c9.963 0 18.04-8.077 18.04-18.04s-8.077-18.04-18.04-18.04c-9.964 0-18.041 8.077-18.041 18.04s8.077 18.04 18.041 18.04Z" fill="#000"/><path d="M0 51.815h8.382V31.86h22.085v19.955h8.448V2.259h-8.448v22.217H8.382V2.26H0v49.556Zm105.756-36.252c-4.39 0-7.85 1.463-9.712 5.388v-4.99h-7.517v35.854h7.983V31.527c0-5.587 3.326-8.78 8.248-8.78h4.324v-7.184h-3.326Zm8.035-4.323h7.983V2.26h-7.983v8.98Zm0 40.575h7.983V15.962h-7.983v35.853Zm12.609 0h29.402v-7.184h-18.626l18.559-22.15v-6.52h-28.471v7.185h17.961L126.4 45.296v6.519Zm93.31-36.651c-4.457 0-8.182 1.796-10.178 5.122v-4.324h-7.516v35.853h7.982V30.529c0-4.855 3.06-7.982 7.65-7.982 4.523 0 7.583 3.127 7.583 7.982v21.286h7.983V28.534c0-7.85-5.521-13.37-13.504-13.37Z" fill="#000"/></svg>